<svg width="119" height="40" viewBox="0 0 119 40" fill="none" xmlns="http://www.w3.org/2000/svg">
<g clip-path="url(#clip0_662_815)">
<path d="M109.478 0.00013H9.47781C9.1133 0.00013 8.75316 0.00013 8.38961 0.00213C8.08529 0.00413 7.78339 0.00994 7.47614 0.01483C6.80866 0.0227318 6.14275 0.0818063 5.48419 0.19154C4.82656 0.303663 4.18954 0.515046 3.59465 0.81854C3.0005 1.1246 2.4576 1.5223 1.98566 1.9972C1.51123 2.47077 1.11577 3.01815 0.814463 3.61829C0.512326 4.21724 0.302824 4.85907 0.193191 5.52161C0.0825158 6.18332 0.0229606 6.85265 0.0150596 7.52361C0.00583499 7.83021 0.00486083 8.13783 0 8.44447V31.5587C0.00486083 31.8692 0.00583499 32.17 0.0150596 32.4806C0.022963 33.1516 0.0825183 33.8209 0.193191 34.4825C0.302521 35.1455 0.512036 35.7877 0.814463 36.3868C1.11563 36.985 1.51115 37.5302 1.98566 38.0011C2.45581 38.4781 2.99906 38.8761 3.59465 39.1798C4.18953 39.4841 4.82649 39.6968 5.48419 39.8106C6.14286 39.9195 6.8087 39.9786 7.47614 39.9874C7.78339 39.9942 8.08529 39.9981 8.38961 39.9981C8.75315 40.0001 9.11332 40.0001 9.47781 40.0001H109.478C109.835 40.0001 110.198 40.0001 110.555 39.9981C110.858 39.9981 111.169 39.9942 111.472 39.9874C112.138 39.9791 112.803 39.92 113.46 39.8106C114.12 39.696 114.759 39.4834 115.357 39.1798C115.952 38.8759 116.495 38.478 116.964 38.0011C117.438 37.5284 117.834 36.9836 118.139 36.3868C118.439 35.7872 118.647 35.1451 118.754 34.4825C118.865 33.8208 118.927 33.1516 118.939 32.4806C118.943 32.17 118.943 31.8692 118.943 31.5587C118.95 31.1954 118.95 30.8341 118.95 30.4649V9.53626C118.95 9.17005 118.95 8.80677 118.943 8.44447C118.943 8.13783 118.943 7.83021 118.939 7.52357C118.927 6.85255 118.865 6.18337 118.754 5.52157C118.646 4.85941 118.439 4.21763 118.139 3.61825C117.525 2.41533 116.552 1.43616 115.357 0.81845C114.759 0.515697 114.12 0.30437 113.46 0.19145C112.803 0.0812328 112.138 0.0221378 111.472 0.01469C111.169 0.00981 110.858 0.00395 110.555 0.002C110.198 0 109.835 0 109.478 0V0.00013Z" fill="#0B0B0B"/>
<path d="M8.39434 39.125C8.09147 39.125 7.79593 39.1211 7.49544 39.1143C6.87296 39.1061 6.25193 39.0516 5.63745 38.9512C5.06448 38.8519 4.50942 38.6673 3.99059 38.4033C3.47651 38.1415 3.00764 37.7983 2.60192 37.3867C2.19033 36.98 1.84766 36.5082 1.5875 35.9902C1.32446 35.4688 1.14243 34.9099 1.04774 34.333C0.945473 33.7131 0.890145 33.0863 0.882228 32.458C0.875926 32.2471 0.867676 31.5449 0.867676 31.5449V8.44434C0.867676 8.44434 0.876463 7.75293 0.882278 7.5498C0.889859 6.92248 0.944865 6.29665 1.04682 5.67773C1.14169 5.09925 1.32387 4.53875 1.58704 4.01563C1.84625 3.49794 2.18701 3.02586 2.59613 2.61768C3.00478 2.20562 3.47515 1.8606 3.9901 1.59521C4.50774 1.33209 5.06175 1.14873 5.63356 1.05127C6.25006 0.949836 6.87324 0.894996 7.49788 0.88721L8.39482 0.875H110.55L111.458 0.8877C112.077 0.895099 112.695 0.94945 113.305 1.05029C113.883 1.14898 114.443 1.33362 114.966 1.59814C115.998 2.13299 116.837 2.97916 117.367 4.01807C117.626 4.53758 117.805 5.09351 117.899 5.66699C118.002 6.29099 118.06 6.92174 118.072 7.5542C118.075 7.8374 118.075 8.1416 118.075 8.44434C118.082 8.81934 118.082 9.17627 118.082 9.53613V30.4648C118.082 30.8281 118.082 31.1826 118.075 31.54C118.075 31.8652 118.075 32.1631 118.071 32.4697C118.059 33.0909 118.002 33.7104 117.901 34.3232C117.808 34.9043 117.627 35.4675 117.364 35.9932C117.102 36.5056 116.761 36.9733 116.355 37.3789C115.948 37.7927 115.479 38.1379 114.963 38.4014C114.441 38.6674 113.882 38.8527 113.305 38.9512C112.691 39.0522 112.07 39.1067 111.447 39.1143C111.156 39.1211 110.851 39.125 110.555 39.125L109.478 39.127L8.39434 39.125Z" fill="#F9F6F0"/>
<path d="M42.0497 27.1397H37.3445L36.2146 30.4961H34.2217L38.6783 18.0781H40.7489L45.2056 30.4961H43.1787L42.0497 27.1397ZM37.8319 25.5908H41.5615L39.7229 20.1436H39.6714L37.8319 25.5908Z" fill="#0B0B0B"/>
<path d="M54.8305 25.9714C54.8305 28.7849 53.3336 30.5925 51.0747 30.5925C50.5025 30.6226 49.9334 30.49 49.4326 30.2099C48.9318 29.9297 48.5196 29.5134 48.2431 29.0085H48.2003V33.4929H46.353V21.4441H48.1411V22.9499H48.1751C48.4643 22.4475 48.8835 22.0333 49.3881 21.7514C49.8927 21.4696 50.4639 21.3306 51.0407 21.3493C53.3249 21.3493 54.8305 23.1657 54.8305 25.9714ZM52.9317 25.9714C52.9317 24.1384 51.9901 22.9333 50.5534 22.9333C49.142 22.9333 48.1926 24.1638 48.1926 25.9714C48.1926 27.7956 49.142 29.0173 50.5534 29.0173C51.9901 29.0173 52.9317 27.821 52.9317 25.9714H52.9317Z" fill="#0B0B0B"/>
<path d="M64.7363 25.9714C64.7363 28.7849 63.2389 30.5925 60.98 30.5925C60.4078 30.6226 59.8387 30.49 59.3379 30.2099C58.8371 29.9297 58.4249 29.5134 58.1484 29.0085H58.1056V33.4929H56.2583V21.4441H58.0464V22.9499H58.0804C58.3696 22.4475 58.7888 22.0333 59.2934 21.7514C59.798 21.4696 60.3691 21.3306 60.946 21.3493C63.2302 21.3493 64.7363 23.1657 64.7363 25.9714ZM62.837 25.9714C62.837 24.1384 61.8954 22.9333 60.4587 22.9333C59.0473 22.9333 58.0979 24.1638 58.0979 25.9714C58.0979 27.7956 59.0473 29.0173 60.4587 29.0173C61.8954 29.0173 62.837 27.821 62.837 25.9714Z" fill="#0B0B0B"/>
<path d="M71.2822 27.0362C71.419 28.2676 72.6082 29.0762 74.2332 29.0762C75.7903 29.0762 76.9105 28.2676 76.9105 27.1572C76.9105 26.1934 76.2349 25.6162 74.6351 25.2207L73.0353 24.833C70.7686 24.2822 69.7164 23.2158 69.7164 21.4854C69.7164 19.3428 71.5724 17.8711 74.207 17.8711C76.8163 17.8711 78.6044 19.3428 78.6646 21.4854H76.7998C76.6882 20.2461 75.6699 19.4981 74.1817 19.4981C72.6936 19.4981 71.6753 20.2549 71.6753 21.3565C71.6753 22.2344 72.3257 22.751 73.9167 23.1465L75.2767 23.4824C77.8094 24.0849 78.8607 25.1084 78.8607 26.9248C78.8607 29.248 77.0221 30.7031 74.0963 30.7031C71.3588 30.7031 69.5105 29.2822 69.3911 27.0361L71.2822 27.0362Z" fill="#0B0B0B"/>
<path d="M82.8492 19.3008V21.4434H84.5606V22.915H82.8492V27.9062C82.8492 28.6816 83.1918 29.043 83.9442 29.043C84.1473 29.0394 84.3502 29.0251 84.5518 29V30.4629C84.2136 30.5264 83.8698 30.5552 83.5258 30.5488C81.7037 30.5488 80.9931 29.8603 80.9931 28.1045V22.915H79.6846V21.4434H80.9931V19.3008H82.8492Z" fill="#0B0B0B"/>
<path d="M85.5508 25.9707C85.5508 23.1221 87.2185 21.332 89.8191 21.332C92.4285 21.332 94.0884 23.122 94.0884 25.9707C94.0884 28.8272 92.4372 30.6094 89.8191 30.6094C87.202 30.6094 85.5508 28.8271 85.5508 25.9707ZM92.2062 25.9707C92.2062 24.0166 91.316 22.8633 89.8191 22.8633C88.3222 22.8633 87.4321 24.0254 87.4321 25.9707C87.4321 27.9326 88.3222 29.0772 89.8191 29.0772C91.316 29.0772 92.2061 27.9326 92.2061 25.9707H92.2062Z" fill="#0B0B0B"/>
<path d="M95.6118 21.444H97.3737V22.985H97.4165C97.5357 22.5037 97.8159 22.0784 98.2102 21.7805C98.6044 21.4826 99.0885 21.3303 99.5812 21.3492C99.7941 21.3485 100.006 21.3717 100.214 21.4186V23.1569C99.9454 23.0742 99.665 23.0363 99.3841 23.0445C99.1157 23.0336 98.8482 23.0812 98.5998 23.1841C98.3515 23.287 98.1282 23.4427 97.9453 23.6406C97.7625 23.8385 97.6243 24.0738 97.5404 24.3305C97.4565 24.5872 97.4287 24.8591 97.4591 25.1275V30.4977H95.6118L95.6118 21.444Z" fill="#0B0B0B"/>
<path d="M108.731 27.8379C108.483 29.4814 106.892 30.6094 104.856 30.6094C102.238 30.6094 100.613 28.8447 100.613 26.0137C100.613 23.1738 102.247 21.332 104.778 21.332C107.268 21.332 108.834 23.0527 108.834 25.7978V26.4346H102.478V26.5469C102.448 26.8801 102.49 27.2157 102.599 27.5316C102.709 27.8474 102.884 28.1362 103.113 28.3787C103.342 28.6213 103.619 28.8121 103.927 28.9384C104.235 29.0647 104.566 29.1236 104.899 29.1113C105.335 29.1525 105.773 29.0508 106.148 28.8213C106.522 28.5919 106.813 28.247 106.977 27.8379L108.731 27.8379ZM102.486 25.1357H106.986C107.002 24.8361 106.957 24.5363 106.853 24.2551C106.749 23.9739 106.588 23.7174 106.381 23.5016C106.174 23.2858 105.924 23.1155 105.649 23.0013C105.373 22.8871 105.076 22.8314 104.778 22.8379C104.477 22.8361 104.179 22.8942 103.901 23.009C103.622 23.1237 103.369 23.2928 103.156 23.5064C102.943 23.72 102.774 23.974 102.659 24.2537C102.544 24.5333 102.486 24.8331 102.486 25.1357V25.1357Z" fill="#0B0B0B"/>
<path d="M24.9965 19.8887C25.0077 19.0208 25.2383 18.1697 25.6667 17.4148C26.0952 16.6599 26.7077 16.0256 27.4471 15.571C26.9774 14.9001 26.3576 14.348 25.6372 13.9585C24.9167 13.569 24.1153 13.3529 23.2967 13.3272C21.5505 13.1439 19.8576 14.3722 18.9677 14.3722C18.0607 14.3722 16.6906 13.3454 15.2153 13.3758C14.261 13.4066 13.331 13.6841 12.5158 14.1813C11.7007 14.6784 11.0282 15.3782 10.5639 16.2125C8.55278 19.6945 10.0529 24.8119 11.9794 27.6265C12.9433 29.0047 14.0698 30.5442 15.5438 30.4896C16.9862 30.4298 17.5249 29.5699 19.266 29.5699C20.9909 29.5699 21.4963 30.4896 23.0003 30.4549C24.548 30.4298 25.5232 29.0706 26.4533 27.6793C27.1458 26.6973 27.6787 25.6119 28.0323 24.4634C27.133 24.0831 26.3657 23.4465 25.8258 22.633C25.286 21.8195 24.9976 20.865 24.9965 19.8887Z" fill="#0B0B0B"/>
<path d="M22.1559 11.4775C22.9998 10.4645 23.4155 9.16233 23.3149 7.84766C22.0256 7.98307 20.8346 8.59927 19.9793 9.57348C19.5611 10.0494 19.2408 10.6031 19.0368 11.2029C18.8327 11.8026 18.7488 12.4368 18.79 13.069C19.4348 13.0756 20.0728 12.9358 20.6558 12.6602C21.2389 12.3845 21.7518 11.9802 22.1559 11.4775Z" fill="#0B0B0B"/>
<path d="M37.4297 8.3125V14H36.3594V8.3125H37.4297ZM39.1953 8.3125V9.16016H34.6133V8.3125H39.1953ZM41.3633 14.0781C41.043 14.0781 40.7552 14.026 40.5 13.9219C40.2448 13.8177 40.0273 13.6732 39.8477 13.4883C39.6706 13.3008 39.5339 13.0833 39.4375 12.8359C39.3438 12.5859 39.2969 12.3177 39.2969 12.0312V11.875C39.2969 11.5495 39.3438 11.2539 39.4375 10.9883C39.5312 10.7201 39.6641 10.4896 39.8359 10.2969C40.0078 10.1042 40.2135 9.95573 40.4531 9.85156C40.6927 9.7474 40.957 9.69531 41.2461 9.69531C41.5456 9.69531 41.8099 9.74609 42.0391 9.84766C42.2682 9.94661 42.4596 10.0872 42.6133 10.2695C42.7669 10.4518 42.8828 10.6706 42.9609 10.9258C43.0391 11.1784 43.0781 11.4583 43.0781 11.7656V12.1992H39.7656V11.4883H42.0625V11.4102C42.0573 11.2461 42.026 11.0964 41.9688 10.9609C41.9115 10.8229 41.8229 10.7135 41.7031 10.6328C41.5833 10.5495 41.4284 10.5078 41.2383 10.5078C41.0846 10.5078 40.9505 10.5417 40.8359 10.6094C40.724 10.6745 40.6302 10.7682 40.5547 10.8906C40.4818 11.0104 40.4271 11.1536 40.3906 11.3203C40.3542 11.487 40.3359 11.6719 40.3359 11.875V12.0312C40.3359 12.2083 40.3594 12.3724 40.4062 12.5234C40.4557 12.6745 40.5273 12.806 40.6211 12.918C40.7174 13.0273 40.832 13.1133 40.9648 13.1758C41.1003 13.2357 41.2539 13.2656 41.4258 13.2656C41.6419 13.2656 41.8372 13.224 42.0117 13.1406C42.1888 13.0547 42.3424 12.9284 42.4727 12.7617L42.9922 13.3008C42.9036 13.431 42.7839 13.556 42.6328 13.6758C42.4844 13.7956 42.3047 13.8932 42.0938 13.9688C41.8828 14.0417 41.6393 14.0781 41.3633 14.0781ZM40.6406 9.18359L41.4062 7.99609H42.5469L41.4805 9.18359H40.6406ZM44.8633 8V14H43.8281V8H44.8633ZM47.7461 14.0781C47.4258 14.0781 47.138 14.026 46.8828 13.9219C46.6276 13.8177 46.4102 13.6732 46.2305 13.4883C46.0534 13.3008 45.9167 13.0833 45.8203 12.8359C45.7266 12.5859 45.6797 12.3177 45.6797 12.0312V11.875C45.6797 11.5495 45.7266 11.2539 45.8203 10.9883C45.9141 10.7201 46.0469 10.4896 46.2188 10.2969C46.3906 10.1042 46.5964 9.95573 46.8359 9.85156C47.0755 9.7474 47.3398 9.69531 47.6289 9.69531C47.9284 9.69531 48.1927 9.74609 48.4219 9.84766C48.651 9.94661 48.8424 10.0872 48.9961 10.2695C49.1497 10.4518 49.2656 10.6706 49.3438 10.9258C49.4219 11.1784 49.4609 11.4583 49.4609 11.7656V12.1992H46.1484V11.4883H48.4453V11.4102C48.4401 11.2461 48.4089 11.0964 48.3516 10.9609C48.2943 10.8229 48.2057 10.7135 48.0859 10.6328C47.9661 10.5495 47.8112 10.5078 47.6211 10.5078C47.4674 10.5078 47.3333 10.5417 47.2188 10.6094C47.1068 10.6745 47.013 10.7682 46.9375 10.8906C46.8646 11.0104 46.8099 11.1536 46.7734 11.3203C46.737 11.487 46.7188 11.6719 46.7188 11.875V12.0312C46.7188 12.2083 46.7422 12.3724 46.7891 12.5234C46.8385 12.6745 46.9102 12.806 47.0039 12.918C47.1003 13.0273 47.2148 13.1133 47.3477 13.1758C47.4831 13.2357 47.6367 13.2656 47.8086 13.2656C48.0247 13.2656 48.2201 13.224 48.3945 13.1406C48.5716 13.0547 48.7253 12.9284 48.8555 12.7617L49.375 13.3008C49.2865 13.431 49.1667 13.556 49.0156 13.6758C48.8672 13.7956 48.6875 13.8932 48.4766 13.9688C48.2656 14.0417 48.0221 14.0781 47.7461 14.0781ZM47.0234 9.18359L47.7891 7.99609H48.9297L47.8633 9.18359H47.0234ZM51.8867 13.2656C52.0326 13.2656 52.1628 13.237 52.2773 13.1797C52.3919 13.1224 52.4831 13.0417 52.5508 12.9375C52.6211 12.8333 52.6589 12.7122 52.6641 12.5742H53.6367C53.6315 12.8607 53.5508 13.1172 53.3945 13.3438C53.2383 13.5703 53.0299 13.75 52.7695 13.8828C52.5117 14.013 52.2227 14.0781 51.9023 14.0781C51.5768 14.0781 51.293 14.0234 51.0508 13.9141C50.8086 13.8047 50.6068 13.6523 50.4453 13.457C50.2865 13.2617 50.1667 13.0352 50.0859 12.7773C50.0078 12.5195 49.9688 12.2435 49.9688 11.9492V11.8242C49.9688 11.5299 50.0078 11.2539 50.0859 10.9961C50.1667 10.7383 50.2865 10.5117 50.4453 10.3164C50.6068 10.1211 50.8086 9.96875 51.0508 9.85938C51.293 9.75 51.5755 9.69531 51.8984 9.69531C52.2396 9.69531 52.5391 9.76172 52.7969 9.89453C53.0573 10.0273 53.2604 10.2148 53.4062 10.457C53.5547 10.6992 53.6315 10.9844 53.6367 11.3125H52.6641C52.6589 11.1615 52.625 11.026 52.5625 10.9062C52.5 10.7865 52.4115 10.6901 52.2969 10.6172C52.1823 10.5443 52.043 10.5078 51.8789 10.5078C51.7044 10.5078 51.5586 10.5443 51.4414 10.6172C51.3268 10.6901 51.237 10.7904 51.1719 10.918C51.1094 11.043 51.0651 11.1836 51.0391 11.3398C51.0156 11.4935 51.0039 11.6549 51.0039 11.8242V11.9492C51.0039 12.1211 51.0156 12.2852 51.0391 12.4414C51.0651 12.5977 51.1094 12.7383 51.1719 12.8633C51.237 12.9857 51.3268 13.0833 51.4414 13.1562C51.5586 13.2292 51.707 13.2656 51.8867 13.2656ZM55.3359 8V14H54.3008V8H55.3359ZM55.1719 11.7344H54.8672C54.8672 11.4401 54.9062 11.1693 54.9844 10.9219C55.0625 10.6745 55.1732 10.4596 55.3164 10.2773C55.4596 10.0924 55.6302 9.94922 55.8281 9.84766C56.0286 9.74609 56.25 9.69531 56.4922 9.69531C56.7005 9.69531 56.8893 9.72526 57.0586 9.78516C57.2305 9.84245 57.3776 9.9349 57.5 10.0625C57.6224 10.1901 57.7161 10.3568 57.7812 10.5625C57.849 10.7656 57.8828 11.013 57.8828 11.3047V14H56.8438V11.2969C56.8438 11.1016 56.8151 10.9479 56.7578 10.8359C56.7005 10.7214 56.6185 10.6393 56.5117 10.5898C56.4076 10.5404 56.2786 10.5156 56.125 10.5156C55.9583 10.5156 55.8151 10.5482 55.6953 10.6133C55.5755 10.6758 55.4766 10.763 55.3984 10.875C55.3229 10.987 55.2656 11.1159 55.2266 11.2617C55.1901 11.4076 55.1719 11.5651 55.1719 11.7344ZM61.1211 13.1016V11.1523C61.1211 11.0091 61.0964 10.8854 61.0469 10.7812C60.9974 10.6771 60.9219 10.5964 60.8203 10.5391C60.7188 10.4818 60.5898 10.4531 60.4336 10.4531C60.2956 10.4531 60.1745 10.4766 60.0703 10.5234C59.9688 10.5703 59.8906 10.6367 59.8359 10.7227C59.7812 10.806 59.7539 10.9023 59.7539 11.0117H58.7188C58.7188 10.8372 58.7604 10.6719 58.8438 10.5156C58.9271 10.3568 59.0456 10.2161 59.1992 10.0938C59.3555 9.96875 59.5417 9.87109 59.7578 9.80078C59.9766 9.73047 60.2214 9.69531 60.4922 9.69531C60.8125 9.69531 61.0977 9.75 61.3477 9.85938C61.6003 9.96615 61.7982 10.1276 61.9414 10.3438C62.0872 10.5599 62.1602 10.832 62.1602 11.1602V13.0039C62.1602 13.2148 62.1732 13.3958 62.1992 13.5469C62.2279 13.6953 62.2695 13.8242 62.3242 13.9336V14H61.2734C61.224 13.8932 61.1862 13.7578 61.1602 13.5938C61.1341 13.4271 61.1211 13.263 61.1211 13.1016ZM61.2656 11.4258L61.2734 12.0391H60.6211C60.4596 12.0391 60.3177 12.056 60.1953 12.0898C60.0729 12.1211 59.9727 12.168 59.8945 12.2305C59.8164 12.2904 59.7578 12.3633 59.7188 12.4492C59.6797 12.5326 59.6602 12.6276 59.6602 12.7344C59.6602 12.8385 59.6836 12.9323 59.7305 13.0156C59.7799 13.099 59.8503 13.1654 59.9414 13.2148C60.0352 13.2617 60.1445 13.2852 60.2695 13.2852C60.4518 13.2852 60.6107 13.2487 60.7461 13.1758C60.8815 13.1003 60.987 13.0091 61.0625 12.9023C61.138 12.7956 61.1784 12.694 61.1836 12.5977L61.4805 13.043C61.444 13.1497 61.3893 13.263 61.3164 13.3828C61.2435 13.5026 61.1497 13.6146 61.0352 13.7188C60.9206 13.8229 60.7826 13.9089 60.6211 13.9766C60.4596 14.0443 60.2721 14.0781 60.0586 14.0781C59.7852 14.0781 59.5404 14.0234 59.3242 13.9141C59.1081 13.8047 58.9375 13.6549 58.8125 13.4648C58.6875 13.2747 58.625 13.0586 58.625 12.8164C58.625 12.5924 58.6667 12.3945 58.75 12.2227C58.8333 12.0508 58.957 11.9062 59.1211 11.7891C59.2852 11.6693 59.4883 11.5794 59.7305 11.5195C59.9753 11.457 60.2552 11.4258 60.5703 11.4258H61.2656ZM64.1211 10.6367V14H63.0898V9.77344H64.0664L64.1211 10.6367ZM65.4062 9.74609L65.3906 10.707C65.3333 10.6966 65.2682 10.6888 65.1953 10.6836C65.125 10.6784 65.0586 10.6758 64.9961 10.6758C64.8372 10.6758 64.6979 10.6979 64.5781 10.7422C64.4583 10.7839 64.3581 10.8451 64.2773 10.9258C64.1992 11.0065 64.1393 11.1055 64.0977 11.2227C64.056 11.3372 64.0326 11.4674 64.0273 11.6133L63.8047 11.5859C63.8047 11.3177 63.832 11.069 63.8867 10.8398C63.9414 10.6107 64.0208 10.4102 64.125 10.2383C64.2292 10.0664 64.3594 9.93359 64.5156 9.83984C64.6745 9.74349 64.8568 9.69531 65.0625 9.69531C65.1198 9.69531 65.181 9.70052 65.2461 9.71094C65.3138 9.71875 65.3672 9.73047 65.4062 9.74609ZM68.582 9.77344H69.5195V13.8711C69.5195 14.2539 69.4362 14.5781 69.2695 14.8438C69.1055 15.112 68.875 15.3151 68.5781 15.4531C68.2812 15.5938 67.9362 15.6641 67.543 15.6641C67.3737 15.6641 67.1901 15.6406 66.9922 15.5938C66.7969 15.5469 66.6081 15.4727 66.4258 15.3711C66.2461 15.2721 66.0964 15.1432 65.9766 14.9844L66.4414 14.375C66.582 14.5391 66.7409 14.6628 66.918 14.7461C67.0951 14.832 67.2865 14.875 67.4922 14.875C67.7005 14.875 67.8776 14.8359 68.0234 14.7578C68.1719 14.6823 68.2852 14.5703 68.3633 14.4219C68.444 14.276 68.4844 14.0964 68.4844 13.8828V10.7383L68.582 9.77344ZM65.7266 11.9375V11.8555C65.7266 11.5326 65.7656 11.2396 65.8438 10.9766C65.9219 10.7109 66.0339 10.4831 66.1797 10.293C66.3281 10.1029 66.5065 9.95573 66.7148 9.85156C66.9258 9.7474 67.1628 9.69531 67.4258 9.69531C67.7044 9.69531 67.9388 9.74609 68.1289 9.84766C68.3216 9.94922 68.4805 10.0938 68.6055 10.2812C68.7331 10.4688 68.832 10.6914 68.9023 10.9492C68.9753 11.2044 69.0312 11.4857 69.0703 11.793V12.0156C69.0339 12.3151 68.9753 12.5898 68.8945 12.8398C68.8164 13.0898 68.7122 13.3086 68.582 13.4961C68.4518 13.681 68.2904 13.8242 68.0977 13.9258C67.9049 14.0273 67.6784 14.0781 67.418 14.0781C67.1576 14.0781 66.9232 14.0247 66.7148 13.918C66.5065 13.8112 66.3281 13.6615 66.1797 13.4688C66.0339 13.276 65.9219 13.0495 65.8438 12.7891C65.7656 12.5286 65.7266 12.2448 65.7266 11.9375ZM66.7578 11.8555V11.9375C66.7578 12.1198 66.776 12.2904 66.8125 12.4492C66.849 12.6081 66.9049 12.7487 66.9805 12.8711C67.056 12.9909 67.151 13.0846 67.2656 13.1523C67.3802 13.2201 67.5169 13.2539 67.6758 13.2539C67.8893 13.2539 68.0638 13.2096 68.1992 13.1211C68.3372 13.0299 68.4414 12.9062 68.5117 12.75C68.5846 12.5911 68.6315 12.4128 68.6523 12.2148V11.6016C68.6393 11.4453 68.6107 11.3008 68.5664 11.168C68.5247 11.0352 68.4661 10.9206 68.3906 10.8242C68.3151 10.7279 68.2188 10.6523 68.1016 10.5977C67.9844 10.543 67.8451 10.5156 67.6836 10.5156C67.5273 10.5156 67.3906 10.5508 67.2734 10.6211C67.1562 10.6888 67.0599 10.7839 66.9844 10.9062C66.9089 11.0286 66.8516 11.1706 66.8125 11.332C66.776 11.4935 66.7578 11.668 66.7578 11.8555ZM72.3477 14.0781C72.0273 14.0781 71.7396 14.026 71.4844 13.9219C71.2292 13.8177 71.0117 13.6732 70.832 13.4883C70.6549 13.3008 70.5182 13.0833 70.4219 12.8359C70.3281 12.5859 70.2812 12.3177 70.2812 12.0312V11.875C70.2812 11.5495 70.3281 11.2539 70.4219 10.9883C70.5156 10.7201 70.6484 10.4896 70.8203 10.2969C70.9922 10.1042 71.1979 9.95573 71.4375 9.85156C71.6771 9.7474 71.9414 9.69531 72.2305 9.69531C72.5299 9.69531 72.7943 9.74609 73.0234 9.84766C73.2526 9.94661 73.444 10.0872 73.5977 10.2695C73.7513 10.4518 73.8672 10.6706 73.9453 10.9258C74.0234 11.1784 74.0625 11.4583 74.0625 11.7656V12.1992H70.75V11.4883H73.0469V11.4102C73.0417 11.2461 73.0104 11.0964 72.9531 10.9609C72.8958 10.8229 72.8073 10.7135 72.6875 10.6328C72.5677 10.5495 72.4128 10.5078 72.2227 10.5078C72.069 10.5078 71.9349 10.5417 71.8203 10.6094C71.7083 10.6745 71.6146 10.7682 71.5391 10.8906C71.4661 11.0104 71.4115 11.1536 71.375 11.3203C71.3385 11.487 71.3203 11.6719 71.3203 11.875V12.0312C71.3203 12.2083 71.3438 12.3724 71.3906 12.5234C71.4401 12.6745 71.5117 12.806 71.6055 12.918C71.7018 13.0273 71.8164 13.1133 71.9492 13.1758C72.0846 13.2357 72.2383 13.2656 72.4102 13.2656C72.6263 13.2656 72.8216 13.224 72.9961 13.1406C73.1732 13.0547 73.3268 12.9284 73.457 12.7617L73.9766 13.3008C73.888 13.431 73.7682 13.556 73.6172 13.6758C73.4688 13.7956 73.2891 13.8932 73.0781 13.9688C72.8672 14.0417 72.6237 14.0781 72.3477 14.0781ZM75.7852 10.6367V14H74.7539V9.77344H75.7305L75.7852 10.6367ZM77.0703 9.74609L77.0547 10.707C76.9974 10.6966 76.9323 10.6888 76.8594 10.6836C76.7891 10.6784 76.7227 10.6758 76.6602 10.6758C76.5013 10.6758 76.362 10.6979 76.2422 10.7422C76.1224 10.7839 76.0221 10.8451 75.9414 10.9258C75.8633 11.0065 75.8034 11.1055 75.7617 11.2227C75.7201 11.3372 75.6966 11.4674 75.6914 11.6133L75.4688 11.5859C75.4688 11.3177 75.4961 11.069 75.5508 10.8398C75.6055 10.6107 75.6849 10.4102 75.7891 10.2383C75.8932 10.0664 76.0234 9.93359 76.1797 9.83984C76.3385 9.74349 76.5208 9.69531 76.7266 9.69531C76.7839 9.69531 76.8451 9.70052 76.9102 9.71094C76.9779 9.71875 77.0312 9.73047 77.0703 9.74609ZM82.1641 13.1016V8H83.2031V14H82.2656L82.1641 13.1016ZM79.4492 11.9375V11.8555C79.4492 11.5326 79.4857 11.2396 79.5586 10.9766C79.6341 10.7109 79.7435 10.4831 79.8867 10.293C80.0299 10.1029 80.2031 9.95573 80.4062 9.85156C80.612 9.7474 80.8451 9.69531 81.1055 9.69531C81.3581 9.69531 81.5781 9.74609 81.7656 9.84766C81.9557 9.94922 82.1172 10.0938 82.25 10.2812C82.3854 10.4688 82.4935 10.6914 82.5742 10.9492C82.6549 11.2044 82.7135 11.4857 82.75 11.793V12.0156C82.7135 12.3151 82.6549 12.5898 82.5742 12.8398C82.4935 13.0898 82.3854 13.3086 82.25 13.4961C82.1172 13.681 81.9557 13.8242 81.7656 13.9258C81.5755 14.0273 81.3529 14.0781 81.0977 14.0781C80.8398 14.0781 80.6081 14.0247 80.4023 13.918C80.1992 13.8112 80.026 13.6615 79.8828 13.4688C79.7422 13.276 79.6341 13.0495 79.5586 12.7891C79.4857 12.5286 79.4492 12.2448 79.4492 11.9375ZM80.4844 11.8555V11.9375C80.4844 12.1198 80.5 12.2904 80.5312 12.4492C80.5625 12.6081 80.6133 12.7487 80.6836 12.8711C80.7539 12.9909 80.8438 13.0846 80.9531 13.1523C81.0651 13.2201 81.2005 13.2539 81.3594 13.2539C81.5625 13.2539 81.7292 13.2096 81.8594 13.1211C81.9922 13.0299 82.0951 12.9062 82.168 12.75C82.2409 12.5911 82.2878 12.4128 82.3086 12.2148V11.6016C82.2982 11.4453 82.2708 11.3008 82.2266 11.168C82.1849 11.0352 82.125 10.9206 82.0469 10.8242C81.9714 10.7279 81.8776 10.6523 81.7656 10.5977C81.6536 10.543 81.5208 10.5156 81.3672 10.5156C81.2083 10.5156 81.0729 10.5508 80.9609 10.6211C80.849 10.6888 80.7578 10.7839 80.6875 10.9062C80.6172 11.0286 80.5651 11.1706 80.5312 11.332C80.5 11.4935 80.4844 11.668 80.4844 11.8555ZM86.4648 13.1016V11.1523C86.4648 11.0091 86.4401 10.8854 86.3906 10.7812C86.3411 10.6771 86.2656 10.5964 86.1641 10.5391C86.0625 10.4818 85.9336 10.4531 85.7773 10.4531C85.6393 10.4531 85.5182 10.4766 85.4141 10.5234C85.3125 10.5703 85.2344 10.6367 85.1797 10.7227C85.125 10.806 85.0977 10.9023 85.0977 11.0117H84.0625C84.0625 10.8372 84.1042 10.6719 84.1875 10.5156C84.2708 10.3568 84.3893 10.2161 84.543 10.0938C84.6992 9.96875 84.8854 9.87109 85.1016 9.80078C85.3203 9.73047 85.5651 9.69531 85.8359 9.69531C86.1562 9.69531 86.4414 9.75 86.6914 9.85938C86.944 9.96615 87.1419 10.1276 87.2852 10.3438C87.431 10.5599 87.5039 10.832 87.5039 11.1602V13.0039C87.5039 13.2148 87.5169 13.3958 87.543 13.5469C87.5716 13.6953 87.6133 13.8242 87.668 13.9336V14H86.6172C86.5677 13.8932 86.5299 13.7578 86.5039 13.5938C86.4779 13.4271 86.4648 13.263 86.4648 13.1016ZM86.6094 11.4258L86.6172 12.0391H85.9648C85.8034 12.0391 85.6615 12.056 85.5391 12.0898C85.4167 12.1211 85.3164 12.168 85.2383 12.2305C85.1602 12.2904 85.1016 12.3633 85.0625 12.4492C85.0234 12.5326 85.0039 12.6276 85.0039 12.7344C85.0039 12.8385 85.0273 12.9323 85.0742 13.0156C85.1237 13.099 85.194 13.1654 85.2852 13.2148C85.3789 13.2617 85.4883 13.2852 85.6133 13.2852C85.7956 13.2852 85.9544 13.2487 86.0898 13.1758C86.2253 13.1003 86.3307 13.0091 86.4062 12.9023C86.4818 12.7956 86.5221 12.694 86.5273 12.5977L86.8242 13.043C86.7878 13.1497 86.7331 13.263 86.6602 13.3828C86.5872 13.5026 86.4935 13.6146 86.3789 13.7188C86.2643 13.8229 86.1263 13.9089 85.9648 13.9766C85.8034 14.0443 85.6159 14.0781 85.4023 14.0781C85.1289 14.0781 84.8841 14.0234 84.668 13.9141C84.4518 13.8047 84.2812 13.6549 84.1562 13.4648C84.0312 13.2747 83.9688 13.0586 83.9688 12.8164C83.9688 12.5924 84.0104 12.3945 84.0938 12.2227C84.1771 12.0508 84.3008 11.9062 84.4648 11.7891C84.6289 11.6693 84.832 11.5794 85.0742 11.5195C85.319 11.457 85.599 11.4258 85.9141 11.4258H86.6094ZM89.4453 10.6758V14H88.4141V9.77344H89.3828L89.4453 10.6758ZM89.2812 11.7344H88.9766C88.9792 11.4271 89.0208 11.1484 89.1016 10.8984C89.1823 10.6484 89.2956 10.4336 89.4414 10.2539C89.5898 10.0742 89.7656 9.9362 89.9688 9.83984C90.1719 9.74349 90.3984 9.69531 90.6484 9.69531C90.8516 9.69531 91.0352 9.72396 91.1992 9.78125C91.3633 9.83854 91.5039 9.92969 91.6211 10.0547C91.7409 10.1797 91.832 10.3438 91.8945 10.5469C91.9596 10.7474 91.9922 10.9948 91.9922 11.2891V14H90.9531V11.2812C90.9531 11.0885 90.9245 10.9362 90.8672 10.8242C90.8125 10.7122 90.7318 10.6328 90.625 10.5859C90.5208 10.5391 90.3919 10.5156 90.2383 10.5156C90.0794 10.5156 89.9401 10.5482 89.8203 10.6133C89.7031 10.6758 89.6042 10.763 89.5234 10.875C89.4453 10.987 89.3854 11.1159 89.3438 11.2617C89.3021 11.4076 89.2812 11.5651 89.2812 11.7344ZM95.2266 12.8438C95.2266 12.7552 95.2031 12.6758 95.1562 12.6055C95.1094 12.5352 95.0208 12.4714 94.8906 12.4141C94.763 12.3542 94.5755 12.2982 94.3281 12.2461C94.1094 12.1992 93.9076 12.1406 93.7227 12.0703C93.5378 12 93.3789 11.9154 93.2461 11.8164C93.1133 11.7148 93.0091 11.5964 92.9336 11.4609C92.8607 11.3229 92.8242 11.1641 92.8242 10.9844C92.8242 10.8099 92.862 10.6458 92.9375 10.4922C93.013 10.3359 93.1224 10.1992 93.2656 10.082C93.4089 9.96224 93.5833 9.86849 93.7891 9.80078C93.9948 9.73047 94.2266 9.69531 94.4844 9.69531C94.8438 9.69531 95.1523 9.75391 95.4102 9.87109C95.6706 9.98828 95.8698 10.1497 96.0078 10.3555C96.1458 10.5586 96.2148 10.7878 96.2148 11.043H95.1836C95.1836 10.931 95.1576 10.8294 95.1055 10.7383C95.056 10.6471 94.9792 10.5742 94.875 10.5195C94.7708 10.4622 94.6393 10.4336 94.4805 10.4336C94.3372 10.4336 94.2161 10.457 94.1172 10.5039C94.0208 10.5508 93.9479 10.612 93.8984 10.6875C93.849 10.763 93.8242 10.8464 93.8242 10.9375C93.8242 11.0052 93.8372 11.0664 93.8633 11.1211C93.8919 11.1732 93.9375 11.2214 94 11.2656C94.0625 11.3099 94.1471 11.3503 94.2539 11.3867C94.3633 11.4232 94.4974 11.4583 94.6562 11.4922C94.9714 11.5547 95.2461 11.638 95.4805 11.7422C95.7174 11.8438 95.9023 11.9792 96.0352 12.1484C96.168 12.3177 96.2344 12.5339 96.2344 12.7969C96.2344 12.9844 96.194 13.1562 96.1133 13.3125C96.0326 13.4661 95.9154 13.6003 95.7617 13.7148C95.6081 13.8294 95.4245 13.9193 95.2109 13.9844C94.9974 14.0469 94.7565 14.0781 94.4883 14.0781C94.1003 14.0781 93.7721 14.0091 93.5039 13.8711C93.2357 13.7305 93.0326 13.5534 92.8945 13.3398C92.7565 13.1237 92.6875 12.8997 92.6875 12.668H93.6758C93.6836 12.832 93.7279 12.9635 93.8086 13.0625C93.8893 13.1615 93.9909 13.2331 94.1133 13.2773C94.2383 13.319 94.3698 13.3398 94.5078 13.3398C94.6641 13.3398 94.7956 13.319 94.9023 13.2773C95.0091 13.2331 95.0898 13.1745 95.1445 13.1016C95.1992 13.026 95.2266 12.9401 95.2266 12.8438Z" fill="#0B0B0B"/>
</g>
<defs>
<clipPath id="clip0_662_815">
<rect width="118.95" height="40" fill="white"/>
</clipPath>
</defs>
</svg>
