<svg width="135" height="40" viewBox="0 0 135 40" fill="none" xmlns="http://www.w3.org/2000/svg">
<g clip-path="url(#clip0_662_830)">
<rect width="134.195" height="40" rx="5" fill="#F9F6F0"/>
<path d="M129.225 40H4.96918C2.23559 40 0 37.75 0 35V5C0 2.25 2.23559 0 4.96918 0H129.225C131.958 0 134.195 2.25 134.195 5V35C134.195 37.75 131.958 40 129.225 40Z" fill="#F9F6F0"/>
<path d="M129.225 0H4.96918C2.23559 0 0 2.25 0 5V35C0 37.75 2.23559 40 4.96918 40H129.225C131.958 40 134.195 37.75 134.195 35V5C134.195 2.25 131.958 0 129.225 0ZM129.225 0.8C131.527 0.8 133.4 2.684 133.4 5V35C133.4 37.316 131.527 39.201 129.225 39.201H4.96918C2.667 39.201 0.795229 37.316 0.795229 35V5C0.795229 2.684 2.667 0.8 4.96918 0.8H129.225Z" fill="#030404"/>
<path d="M20.5449 19.4883L9.96143 30.7883C9.96242 30.7903 9.96242 30.7923 9.96341 30.7943C10.2875 32.0223 11.4018 32.9253 12.7239 32.9253C13.2527 32.9253 13.7487 32.7813 14.1741 32.5293L14.2079 32.5093L26.1205 25.5943L20.5449 19.4883Z" fill="#EB4335"/>
<path d="M31.252 17.5617L31.2421 17.5547L26.0989 14.5547L20.3047 19.7417L26.1188 25.5897L31.2351 22.6207C32.1317 22.1337 32.7401 21.1827 32.7401 20.0857C32.7401 18.9967 32.1397 18.0497 31.252 17.5617Z" fill="#F4CD04"/>
<path d="M9.96167 9.33984C9.89805 9.57584 9.86426 9.82284 9.86426 10.0798V30.0468C9.86426 30.3038 9.89706 30.5518 9.96167 30.7868L20.909 19.7758L9.96167 9.33984Z" fill="#547DBF"/>
<path d="M20.6225 20.0631L26.1006 14.5541L14.201 7.61413C13.7686 7.35313 13.2646 7.20312 12.7239 7.20312C11.4018 7.20312 10.2865 8.10812 9.96143 9.33713V9.34013L20.6225 20.0631Z" fill="#30A851"/>
<path d="M67.6878 21.705C65.3498 21.705 63.4442 23.493 63.4442 25.958C63.4442 28.407 65.3498 30.211 67.6878 30.211C70.0258 30.211 71.9313 28.407 71.9313 25.958C71.9313 23.493 70.0258 21.705 67.6878 21.705ZM67.6878 28.536C66.4065 28.536 65.3011 27.473 65.3011 25.958C65.3011 24.427 66.4065 23.38 67.6878 23.38C68.9691 23.38 70.0735 24.427 70.0735 25.958C70.0735 27.472 68.9691 28.536 67.6878 28.536ZM58.4293 21.705C56.0914 21.705 54.1858 23.493 54.1858 25.958C54.1858 28.407 56.0914 30.211 58.4293 30.211C60.7673 30.211 62.6729 28.407 62.6729 25.958C62.6739 23.493 60.7673 21.705 58.4293 21.705ZM58.4293 28.536C57.148 28.536 56.0436 27.473 56.0436 25.958C56.0436 24.427 57.149 23.38 58.4293 23.38C59.7106 23.38 60.815 24.427 60.815 25.958C60.816 27.472 59.7106 28.536 58.4293 28.536ZM47.4174 23.01V24.814H51.7096C51.5814 25.829 51.2454 26.57 50.7325 27.086C50.1083 27.714 49.1311 28.407 47.4174 28.407C44.7753 28.407 42.7096 26.264 42.7096 23.606C42.7096 20.948 44.7753 18.805 47.4174 18.805C48.8428 18.805 49.8836 19.369 50.652 20.094L51.9174 18.821C50.8448 17.79 49.4194 17 47.4174 17C43.7981 17 40.7554 19.964 40.7554 23.605C40.7554 27.246 43.7981 30.21 47.4174 30.21C49.3707 30.21 50.8448 29.566 51.9979 28.357C53.1828 27.165 53.5516 25.489 53.5516 24.136C53.5516 23.717 53.5198 23.33 53.4552 23.008H47.4174V23.01ZM92.4552 24.411C92.1033 23.46 91.0297 21.704 88.8359 21.704C86.658 21.704 84.8488 23.428 84.8488 25.957C84.8488 28.341 86.6421 30.21 89.0446 30.21C90.982 30.21 92.1033 29.018 92.5675 28.325L91.1261 27.358C90.646 28.067 89.989 28.534 89.0446 28.534C88.0993 28.534 87.4273 28.099 86.9949 27.245L92.648 24.893L92.4552 24.411ZM86.6898 25.829C86.6421 24.186 87.9552 23.348 88.8995 23.348C89.6361 23.348 90.2603 23.718 90.4691 24.25L86.6898 25.829ZM82.0933 29.953H83.9512V17.452H82.0933V29.953ZM79.0506 22.655H78.987C78.5705 22.156 77.7703 21.704 76.7613 21.704C74.647 21.704 72.7096 23.573 72.7096 25.973C72.7096 28.357 74.647 30.21 76.7613 30.21C77.7703 30.21 78.5705 29.759 78.987 29.243H79.0506V29.855C79.0506 31.482 78.1858 32.352 76.7921 32.352C75.655 32.352 74.9502 31.53 74.6619 30.838L73.0446 31.515C73.5089 32.643 74.7424 34.028 76.7921 34.028C78.9701 34.028 80.812 32.739 80.812 29.598V21.962H79.0506V22.655ZM76.9214 28.536C75.6401 28.536 74.5675 27.457 74.5675 25.974C74.5675 24.476 75.6401 23.38 76.9214 23.38C78.1868 23.38 79.1788 24.475 79.1788 25.974C79.1788 27.456 78.1868 28.536 76.9214 28.536ZM101.157 17.452H96.7126V29.953H98.5665V25.217H101.156C103.212 25.217 105.233 23.72 105.233 21.335C105.233 18.95 103.213 17.452 101.157 17.452ZM101.205 23.477H98.5665V19.192H101.205C102.591 19.192 103.379 20.347 103.379 21.335C103.379 22.303 102.591 23.477 101.205 23.477ZM112.668 21.682C111.325 21.682 109.934 22.277 109.359 23.596L111.006 24.288C111.358 23.596 112.013 23.371 112.701 23.371C113.66 23.371 114.635 23.95 114.651 24.979V25.108C114.315 24.915 113.595 24.625 112.717 24.625C110.942 24.625 109.135 25.606 109.135 27.44C109.135 29.113 110.59 30.19 112.221 30.19C113.468 30.19 114.155 29.627 114.586 28.968H114.65V29.933H116.44V25.14C116.44 22.92 114.794 21.682 112.668 21.682ZM112.443 28.533C111.836 28.533 110.988 28.227 110.988 27.472C110.988 26.507 112.044 26.137 112.954 26.137C113.769 26.137 114.153 26.314 114.649 26.555C114.506 27.713 113.515 28.533 112.443 28.533ZM122.963 21.955L120.837 27.375H120.773L118.567 21.955H116.569L119.879 29.53L117.992 33.744H119.926L125.027 21.955H122.963ZM106.256 29.953H108.111V17.452H106.256V29.953Z" fill="#0B0B0B"/>
<path d="M44.3312 8.3125V14H43.2609V8.3125H44.3312ZM46.0968 8.3125V9.16016H41.5148V8.3125H46.0968ZM48.2648 14.0781C47.9445 14.0781 47.6567 14.026 47.4015 13.9219C47.1463 13.8177 46.9288 13.6732 46.7491 13.4883C46.5721 13.3008 46.4353 13.0833 46.339 12.8359C46.2452 12.5859 46.1984 12.3177 46.1984 12.0312V11.875C46.1984 11.5495 46.2452 11.2539 46.339 10.9883C46.4327 10.7201 46.5655 10.4896 46.7374 10.2969C46.9093 10.1042 47.115 9.95573 47.3546 9.85156C47.5942 9.7474 47.8585 9.69531 48.1476 9.69531C48.4471 9.69531 48.7114 9.74609 48.9405 9.84766C49.1697 9.94661 49.3611 10.0872 49.5148 10.2695C49.6684 10.4518 49.7843 10.6706 49.8624 10.9258C49.9405 11.1784 49.9796 11.4583 49.9796 11.7656V12.1992H46.6671V11.4883H48.964V11.4102C48.9588 11.2461 48.9275 11.0964 48.8702 10.9609C48.8129 10.8229 48.7244 10.7135 48.6046 10.6328C48.4848 10.5495 48.3299 10.5078 48.1398 10.5078C47.9861 10.5078 47.852 10.5417 47.7374 10.6094C47.6254 10.6745 47.5317 10.7682 47.4562 10.8906C47.3833 11.0104 47.3286 11.1536 47.2921 11.3203C47.2556 11.487 47.2374 11.6719 47.2374 11.875V12.0312C47.2374 12.2083 47.2609 12.3724 47.3077 12.5234C47.3572 12.6745 47.4288 12.806 47.5226 12.918C47.6189 13.0273 47.7335 13.1133 47.8663 13.1758C48.0017 13.2357 48.1554 13.2656 48.3273 13.2656C48.5434 13.2656 48.7387 13.224 48.9132 13.1406C49.0903 13.0547 49.2439 12.9284 49.3741 12.7617L49.8937 13.3008C49.8051 13.431 49.6853 13.556 49.5343 13.6758C49.3859 13.7956 49.2062 13.8932 48.9952 13.9688C48.7843 14.0417 48.5408 14.0781 48.2648 14.0781ZM47.5421 9.18359L48.3077 7.99609H49.4484L48.382 9.18359H47.5421ZM51.7648 8V14H50.7296V8H51.7648ZM54.6476 14.0781C54.3273 14.0781 54.0395 14.026 53.7843 13.9219C53.5291 13.8177 53.3116 13.6732 53.132 13.4883C52.9549 13.3008 52.8181 13.0833 52.7218 12.8359C52.628 12.5859 52.5812 12.3177 52.5812 12.0312V11.875C52.5812 11.5495 52.628 11.2539 52.7218 10.9883C52.8155 10.7201 52.9484 10.4896 53.1202 10.2969C53.2921 10.1042 53.4978 9.95573 53.7374 9.85156C53.977 9.7474 54.2413 9.69531 54.5304 9.69531C54.8299 9.69531 55.0942 9.74609 55.3234 9.84766C55.5525 9.94661 55.7439 10.0872 55.8976 10.2695C56.0512 10.4518 56.1671 10.6706 56.2452 10.9258C56.3234 11.1784 56.3624 11.4583 56.3624 11.7656V12.1992H53.0499V11.4883H55.3468V11.4102C55.3416 11.2461 55.3103 11.0964 55.253 10.9609C55.1958 10.8229 55.1072 10.7135 54.9874 10.6328C54.8676 10.5495 54.7127 10.5078 54.5226 10.5078C54.3689 10.5078 54.2348 10.5417 54.1202 10.6094C54.0083 10.6745 53.9145 10.7682 53.839 10.8906C53.7661 11.0104 53.7114 11.1536 53.6749 11.3203C53.6385 11.487 53.6202 11.6719 53.6202 11.875V12.0312C53.6202 12.2083 53.6437 12.3724 53.6905 12.5234C53.74 12.6745 53.8116 12.806 53.9054 12.918C54.0017 13.0273 54.1163 13.1133 54.2491 13.1758C54.3846 13.2357 54.5382 13.2656 54.7101 13.2656C54.9262 13.2656 55.1215 13.224 55.296 13.1406C55.4731 13.0547 55.6267 12.9284 55.757 12.7617L56.2765 13.3008C56.1879 13.431 56.0681 13.556 55.9171 13.6758C55.7687 13.7956 55.589 13.8932 55.378 13.9688C55.1671 14.0417 54.9236 14.0781 54.6476 14.0781ZM53.9249 9.18359L54.6905 7.99609H55.8312L54.7648 9.18359H53.9249ZM58.7882 13.2656C58.934 13.2656 59.0642 13.237 59.1788 13.1797C59.2934 13.1224 59.3846 13.0417 59.4523 12.9375C59.5226 12.8333 59.5603 12.7122 59.5655 12.5742H60.5382C60.533 12.8607 60.4523 13.1172 60.296 13.3438C60.1398 13.5703 59.9314 13.75 59.671 13.8828C59.4132 14.013 59.1241 14.0781 58.8038 14.0781C58.4783 14.0781 58.1945 14.0234 57.9523 13.9141C57.7101 13.8047 57.5083 13.6523 57.3468 13.457C57.1879 13.2617 57.0681 13.0352 56.9874 12.7773C56.9093 12.5195 56.8702 12.2435 56.8702 11.9492V11.8242C56.8702 11.5299 56.9093 11.2539 56.9874 10.9961C57.0681 10.7383 57.1879 10.5117 57.3468 10.3164C57.5083 10.1211 57.7101 9.96875 57.9523 9.85938C58.1945 9.75 58.477 9.69531 58.7999 9.69531C59.1411 9.69531 59.4405 9.76172 59.6984 9.89453C59.9588 10.0273 60.1619 10.2148 60.3077 10.457C60.4562 10.6992 60.533 10.9844 60.5382 11.3125H59.5655C59.5603 11.1615 59.5265 11.026 59.464 10.9062C59.4015 10.7865 59.3129 10.6901 59.1984 10.6172C59.0838 10.5443 58.9445 10.5078 58.7804 10.5078C58.6059 10.5078 58.4601 10.5443 58.3429 10.6172C58.2283 10.6901 58.1385 10.7904 58.0734 10.918C58.0109 11.043 57.9666 11.1836 57.9405 11.3398C57.9171 11.4935 57.9054 11.6549 57.9054 11.8242V11.9492C57.9054 12.1211 57.9171 12.2852 57.9405 12.4414C57.9666 12.5977 58.0109 12.7383 58.0734 12.8633C58.1385 12.9857 58.2283 13.0833 58.3429 13.1562C58.4601 13.2292 58.6085 13.2656 58.7882 13.2656ZM62.2374 8V14H61.2023V8H62.2374ZM62.0734 11.7344H61.7687C61.7687 11.4401 61.8077 11.1693 61.8859 10.9219C61.964 10.6745 62.0747 10.4596 62.2179 10.2773C62.3611 10.0924 62.5317 9.94922 62.7296 9.84766C62.9301 9.74609 63.1515 9.69531 63.3937 9.69531C63.602 9.69531 63.7908 9.72526 63.9601 9.78516C64.132 9.84245 64.2791 9.9349 64.4015 10.0625C64.5239 10.1901 64.6176 10.3568 64.6827 10.5625C64.7504 10.7656 64.7843 11.013 64.7843 11.3047V14H63.7452V11.2969C63.7452 11.1016 63.7166 10.9479 63.6593 10.8359C63.602 10.7214 63.52 10.6393 63.4132 10.5898C63.309 10.5404 63.1801 10.5156 63.0265 10.5156C62.8598 10.5156 62.7166 10.5482 62.5968 10.6133C62.477 10.6758 62.378 10.763 62.2999 10.875C62.2244 10.987 62.1671 11.1159 62.128 11.2617C62.0916 11.4076 62.0734 11.5651 62.0734 11.7344ZM68.0226 13.1016V11.1523C68.0226 11.0091 67.9978 10.8854 67.9484 10.7812C67.8989 10.6771 67.8234 10.5964 67.7218 10.5391C67.6202 10.4818 67.4913 10.4531 67.3351 10.4531C67.1971 10.4531 67.076 10.4766 66.9718 10.5234C66.8702 10.5703 66.7921 10.6367 66.7374 10.7227C66.6827 10.806 66.6554 10.9023 66.6554 11.0117H65.6202C65.6202 10.8372 65.6619 10.6719 65.7452 10.5156C65.8286 10.3568 65.9471 10.2161 66.1007 10.0938C66.257 9.96875 66.4431 9.87109 66.6593 9.80078C66.878 9.73047 67.1228 9.69531 67.3937 9.69531C67.714 9.69531 67.9991 9.75 68.2491 9.85938C68.5017 9.96615 68.6997 10.1276 68.8429 10.3438C68.9887 10.5599 69.0616 10.832 69.0616 11.1602V13.0039C69.0616 13.2148 69.0747 13.3958 69.1007 13.5469C69.1293 13.6953 69.171 13.8242 69.2257 13.9336V14H68.1749C68.1254 13.8932 68.0877 13.7578 68.0616 13.5938C68.0356 13.4271 68.0226 13.263 68.0226 13.1016ZM68.1671 11.4258L68.1749 12.0391H67.5226C67.3611 12.0391 67.2192 12.056 67.0968 12.0898C66.9744 12.1211 66.8741 12.168 66.796 12.2305C66.7179 12.2904 66.6593 12.3633 66.6202 12.4492C66.5812 12.5326 66.5616 12.6276 66.5616 12.7344C66.5616 12.8385 66.5851 12.9323 66.632 13.0156C66.6814 13.099 66.7517 13.1654 66.8429 13.2148C66.9366 13.2617 67.046 13.2852 67.171 13.2852C67.3533 13.2852 67.5122 13.2487 67.6476 13.1758C67.783 13.1003 67.8885 13.0091 67.964 12.9023C68.0395 12.7956 68.0799 12.694 68.0851 12.5977L68.382 13.043C68.3455 13.1497 68.2908 13.263 68.2179 13.3828C68.145 13.5026 68.0512 13.6146 67.9366 13.7188C67.8221 13.8229 67.684 13.9089 67.5226 13.9766C67.3611 14.0443 67.1736 14.0781 66.9601 14.0781C66.6866 14.0781 66.4418 14.0234 66.2257 13.9141C66.0096 13.8047 65.839 13.6549 65.714 13.4648C65.589 13.2747 65.5265 13.0586 65.5265 12.8164C65.5265 12.5924 65.5681 12.3945 65.6515 12.2227C65.7348 12.0508 65.8585 11.9062 66.0226 11.7891C66.1866 11.6693 66.3898 11.5794 66.632 11.5195C66.8767 11.457 67.1567 11.4258 67.4718 11.4258H68.1671ZM71.0226 10.6367V14H69.9913V9.77344H70.9679L71.0226 10.6367ZM72.3077 9.74609L72.2921 10.707C72.2348 10.6966 72.1697 10.6888 72.0968 10.6836C72.0265 10.6784 71.9601 10.6758 71.8976 10.6758C71.7387 10.6758 71.5994 10.6979 71.4796 10.7422C71.3598 10.7839 71.2596 10.8451 71.1788 10.9258C71.1007 11.0065 71.0408 11.1055 70.9991 11.2227C70.9575 11.3372 70.934 11.4674 70.9288 11.6133L70.7062 11.5859C70.7062 11.3177 70.7335 11.069 70.7882 10.8398C70.8429 10.6107 70.9223 10.4102 71.0265 10.2383C71.1306 10.0664 71.2609 9.93359 71.4171 9.83984C71.576 9.74349 71.7583 9.69531 71.964 9.69531C72.0213 9.69531 72.0825 9.70052 72.1476 9.71094C72.2153 9.71875 72.2687 9.73047 72.3077 9.74609ZM75.4835 9.77344H76.421V13.8711C76.421 14.2539 76.3377 14.5781 76.171 14.8438C76.007 15.112 75.7765 15.3151 75.4796 15.4531C75.1827 15.5938 74.8377 15.6641 74.4445 15.6641C74.2752 15.6641 74.0916 15.6406 73.8937 15.5938C73.6984 15.5469 73.5096 15.4727 73.3273 15.3711C73.1476 15.2721 72.9978 15.1432 72.878 14.9844L73.3429 14.375C73.4835 14.5391 73.6424 14.6628 73.8195 14.7461C73.9965 14.832 74.1879 14.875 74.3937 14.875C74.602 14.875 74.7791 14.8359 74.9249 14.7578C75.0734 14.6823 75.1866 14.5703 75.2648 14.4219C75.3455 14.276 75.3859 14.0964 75.3859 13.8828V10.7383L75.4835 9.77344ZM72.628 11.9375V11.8555C72.628 11.5326 72.6671 11.2396 72.7452 10.9766C72.8234 10.7109 72.9353 10.4831 73.0812 10.293C73.2296 10.1029 73.408 9.95573 73.6163 9.85156C73.8273 9.7474 74.0642 9.69531 74.3273 9.69531C74.6059 9.69531 74.8403 9.74609 75.0304 9.84766C75.2231 9.94922 75.382 10.0938 75.507 10.2812C75.6346 10.4688 75.7335 10.6914 75.8038 10.9492C75.8767 11.2044 75.9327 11.4857 75.9718 11.793V12.0156C75.9353 12.3151 75.8767 12.5898 75.796 12.8398C75.7179 13.0898 75.6137 13.3086 75.4835 13.4961C75.3533 13.681 75.1918 13.8242 74.9991 13.9258C74.8064 14.0273 74.5799 14.0781 74.3195 14.0781C74.059 14.0781 73.8247 14.0247 73.6163 13.918C73.408 13.8112 73.2296 13.6615 73.0812 13.4688C72.9353 13.276 72.8234 13.0495 72.7452 12.7891C72.6671 12.5286 72.628 12.2448 72.628 11.9375ZM73.6593 11.8555V11.9375C73.6593 12.1198 73.6775 12.2904 73.714 12.4492C73.7504 12.6081 73.8064 12.7487 73.882 12.8711C73.9575 12.9909 74.0525 13.0846 74.1671 13.1523C74.2817 13.2201 74.4184 13.2539 74.5773 13.2539C74.7908 13.2539 74.9653 13.2096 75.1007 13.1211C75.2387 13.0299 75.3429 12.9062 75.4132 12.75C75.4861 12.5911 75.533 12.4128 75.5538 12.2148V11.6016C75.5408 11.4453 75.5122 11.3008 75.4679 11.168C75.4262 11.0352 75.3676 10.9206 75.2921 10.8242C75.2166 10.7279 75.1202 10.6523 75.003 10.5977C74.8859 10.543 74.7465 10.5156 74.5851 10.5156C74.4288 10.5156 74.2921 10.5508 74.1749 10.6211C74.0577 10.6888 73.9614 10.7839 73.8859 10.9062C73.8103 11.0286 73.753 11.1706 73.714 11.332C73.6775 11.4935 73.6593 11.668 73.6593 11.8555ZM79.2491 14.0781C78.9288 14.0781 78.6411 14.026 78.3859 13.9219C78.1306 13.8177 77.9132 13.6732 77.7335 13.4883C77.5564 13.3008 77.4197 13.0833 77.3234 12.8359C77.2296 12.5859 77.1827 12.3177 77.1827 12.0312V11.875C77.1827 11.5495 77.2296 11.2539 77.3234 10.9883C77.4171 10.7201 77.5499 10.4896 77.7218 10.2969C77.8937 10.1042 78.0994 9.95573 78.339 9.85156C78.5786 9.7474 78.8429 9.69531 79.132 9.69531C79.4314 9.69531 79.6958 9.74609 79.9249 9.84766C80.1541 9.94661 80.3455 10.0872 80.4991 10.2695C80.6528 10.4518 80.7687 10.6706 80.8468 10.9258C80.9249 11.1784 80.964 11.4583 80.964 11.7656V12.1992H77.6515V11.4883H79.9484V11.4102C79.9431 11.2461 79.9119 11.0964 79.8546 10.9609C79.7973 10.8229 79.7088 10.7135 79.589 10.6328C79.4692 10.5495 79.3142 10.5078 79.1241 10.5078C78.9705 10.5078 78.8364 10.5417 78.7218 10.6094C78.6098 10.6745 78.5161 10.7682 78.4405 10.8906C78.3676 11.0104 78.3129 11.1536 78.2765 11.3203C78.24 11.487 78.2218 11.6719 78.2218 11.875V12.0312C78.2218 12.2083 78.2452 12.3724 78.2921 12.5234C78.3416 12.6745 78.4132 12.806 78.507 12.918C78.6033 13.0273 78.7179 13.1133 78.8507 13.1758C78.9861 13.2357 79.1398 13.2656 79.3116 13.2656C79.5278 13.2656 79.7231 13.224 79.8976 13.1406C80.0747 13.0547 80.2283 12.9284 80.3585 12.7617L80.878 13.3008C80.7895 13.431 80.6697 13.556 80.5187 13.6758C80.3702 13.7956 80.1905 13.8932 79.9796 13.9688C79.7687 14.0417 79.5252 14.0781 79.2491 14.0781ZM82.6866 10.6367V14H81.6554V9.77344H82.632L82.6866 10.6367ZM83.9718 9.74609L83.9562 10.707C83.8989 10.6966 83.8338 10.6888 83.7609 10.6836C83.6905 10.6784 83.6241 10.6758 83.5616 10.6758C83.4028 10.6758 83.2635 10.6979 83.1437 10.7422C83.0239 10.7839 82.9236 10.8451 82.8429 10.9258C82.7648 11.0065 82.7049 11.1055 82.6632 11.2227C82.6215 11.3372 82.5981 11.4674 82.5929 11.6133L82.3702 11.5859C82.3702 11.3177 82.3976 11.069 82.4523 10.8398C82.507 10.6107 82.5864 10.4102 82.6905 10.2383C82.7947 10.0664 82.9249 9.93359 83.0812 9.83984C83.24 9.74349 83.4223 9.69531 83.628 9.69531C83.6853 9.69531 83.7465 9.70052 83.8116 9.71094C83.8793 9.71875 83.9327 9.73047 83.9718 9.74609ZM89.0655 13.1016V8H90.1046V14H89.1671L89.0655 13.1016ZM86.3507 11.9375V11.8555C86.3507 11.5326 86.3872 11.2396 86.4601 10.9766C86.5356 10.7109 86.645 10.4831 86.7882 10.293C86.9314 10.1029 87.1046 9.95573 87.3077 9.85156C87.5135 9.7474 87.7465 9.69531 88.007 9.69531C88.2596 9.69531 88.4796 9.74609 88.6671 9.84766C88.8572 9.94922 89.0187 10.0938 89.1515 10.2812C89.2869 10.4688 89.395 10.6914 89.4757 10.9492C89.5564 11.2044 89.615 11.4857 89.6515 11.793V12.0156C89.615 12.3151 89.5564 12.5898 89.4757 12.8398C89.395 13.0898 89.2869 13.3086 89.1515 13.4961C89.0187 13.681 88.8572 13.8242 88.6671 13.9258C88.477 14.0273 88.2543 14.0781 87.9991 14.0781C87.7413 14.0781 87.5096 14.0247 87.3038 13.918C87.1007 13.8112 86.9275 13.6615 86.7843 13.4688C86.6437 13.276 86.5356 13.0495 86.4601 12.7891C86.3872 12.5286 86.3507 12.2448 86.3507 11.9375ZM87.3859 11.8555V11.9375C87.3859 12.1198 87.4015 12.2904 87.4327 12.4492C87.464 12.6081 87.5148 12.7487 87.5851 12.8711C87.6554 12.9909 87.7452 13.0846 87.8546 13.1523C87.9666 13.2201 88.102 13.2539 88.2609 13.2539C88.464 13.2539 88.6306 13.2096 88.7609 13.1211C88.8937 13.0299 88.9965 12.9062 89.0695 12.75C89.1424 12.5911 89.1892 12.4128 89.2101 12.2148V11.6016C89.1997 11.4453 89.1723 11.3008 89.128 11.168C89.0864 11.0352 89.0265 10.9206 88.9484 10.8242C88.8728 10.7279 88.7791 10.6523 88.6671 10.5977C88.5551 10.543 88.4223 10.5156 88.2687 10.5156C88.1098 10.5156 87.9744 10.5508 87.8624 10.6211C87.7504 10.6888 87.6593 10.7839 87.589 10.9062C87.5187 11.0286 87.4666 11.1706 87.4327 11.332C87.4015 11.4935 87.3859 11.668 87.3859 11.8555ZM93.3663 13.1016V11.1523C93.3663 11.0091 93.3416 10.8854 93.2921 10.7812C93.2426 10.6771 93.1671 10.5964 93.0655 10.5391C92.964 10.4818 92.8351 10.4531 92.6788 10.4531C92.5408 10.4531 92.4197 10.4766 92.3155 10.5234C92.214 10.5703 92.1359 10.6367 92.0812 10.7227C92.0265 10.806 91.9991 10.9023 91.9991 11.0117H90.964C90.964 10.8372 91.0056 10.6719 91.089 10.5156C91.1723 10.3568 91.2908 10.2161 91.4445 10.0938C91.6007 9.96875 91.7869 9.87109 92.003 9.80078C92.2218 9.73047 92.4666 9.69531 92.7374 9.69531C93.0577 9.69531 93.3429 9.75 93.5929 9.85938C93.8455 9.96615 94.0434 10.1276 94.1866 10.3438C94.3325 10.5599 94.4054 10.832 94.4054 11.1602V13.0039C94.4054 13.2148 94.4184 13.3958 94.4445 13.5469C94.4731 13.6953 94.5148 13.8242 94.5695 13.9336V14H93.5187C93.4692 13.8932 93.4314 13.7578 93.4054 13.5938C93.3793 13.4271 93.3663 13.263 93.3663 13.1016ZM93.5109 11.4258L93.5187 12.0391H92.8663C92.7049 12.0391 92.5629 12.056 92.4405 12.0898C92.3181 12.1211 92.2179 12.168 92.1398 12.2305C92.0616 12.2904 92.003 12.3633 91.964 12.4492C91.9249 12.5326 91.9054 12.6276 91.9054 12.7344C91.9054 12.8385 91.9288 12.9323 91.9757 13.0156C92.0252 13.099 92.0955 13.1654 92.1866 13.2148C92.2804 13.2617 92.3898 13.2852 92.5148 13.2852C92.6971 13.2852 92.8559 13.2487 92.9913 13.1758C93.1267 13.1003 93.2322 13.0091 93.3077 12.9023C93.3833 12.7956 93.4236 12.694 93.4288 12.5977L93.7257 13.043C93.6892 13.1497 93.6346 13.263 93.5616 13.3828C93.4887 13.5026 93.395 13.6146 93.2804 13.7188C93.1658 13.8229 93.0278 13.9089 92.8663 13.9766C92.7049 14.0443 92.5174 14.0781 92.3038 14.0781C92.0304 14.0781 91.7856 14.0234 91.5695 13.9141C91.3533 13.8047 91.1827 13.6549 91.0577 13.4648C90.9327 13.2747 90.8702 13.0586 90.8702 12.8164C90.8702 12.5924 90.9119 12.3945 90.9952 12.2227C91.0786 12.0508 91.2023 11.9062 91.3663 11.7891C91.5304 11.6693 91.7335 11.5794 91.9757 11.5195C92.2205 11.457 92.5004 11.4258 92.8155 11.4258H93.5109ZM96.3468 10.6758V14H95.3155V9.77344H96.2843L96.3468 10.6758ZM96.1827 11.7344H95.878C95.8806 11.4271 95.9223 11.1484 96.003 10.8984C96.0838 10.6484 96.1971 10.4336 96.3429 10.2539C96.4913 10.0742 96.6671 9.9362 96.8702 9.83984C97.0734 9.74349 97.2999 9.69531 97.5499 9.69531C97.753 9.69531 97.9366 9.72396 98.1007 9.78125C98.2648 9.83854 98.4054 9.92969 98.5226 10.0547C98.6424 10.1797 98.7335 10.3438 98.796 10.5469C98.8611 10.7474 98.8937 10.9948 98.8937 11.2891V14H97.8546V11.2812C97.8546 11.0885 97.826 10.9362 97.7687 10.8242C97.714 10.7122 97.6333 10.6328 97.5265 10.5859C97.4223 10.5391 97.2934 10.5156 97.1398 10.5156C96.9809 10.5156 96.8416 10.5482 96.7218 10.6133C96.6046 10.6758 96.5056 10.763 96.4249 10.875C96.3468 10.987 96.2869 11.1159 96.2452 11.2617C96.2036 11.4076 96.1827 11.5651 96.1827 11.7344ZM102.128 12.8438C102.128 12.7552 102.105 12.6758 102.058 12.6055C102.011 12.5352 101.922 12.4714 101.792 12.4141C101.665 12.3542 101.477 12.2982 101.23 12.2461C101.011 12.1992 100.809 12.1406 100.624 12.0703C100.439 12 100.28 11.9154 100.148 11.8164C100.015 11.7148 99.9106 11.5964 99.8351 11.4609C99.7622 11.3229 99.7257 11.1641 99.7257 10.9844C99.7257 10.8099 99.7635 10.6458 99.839 10.4922C99.9145 10.3359 100.024 10.1992 100.167 10.082C100.31 9.96224 100.485 9.86849 100.691 9.80078C100.896 9.73047 101.128 9.69531 101.386 9.69531C101.745 9.69531 102.054 9.75391 102.312 9.87109C102.572 9.98828 102.771 10.1497 102.909 10.3555C103.047 10.5586 103.116 10.7878 103.116 11.043H102.085C102.085 10.931 102.059 10.8294 102.007 10.7383C101.957 10.6471 101.881 10.5742 101.776 10.5195C101.672 10.4622 101.541 10.4336 101.382 10.4336C101.239 10.4336 101.118 10.457 101.019 10.5039C100.922 10.5508 100.849 10.612 100.8 10.6875C100.75 10.763 100.726 10.8464 100.726 10.9375C100.726 11.0052 100.739 11.0664 100.765 11.1211C100.793 11.1732 100.839 11.2214 100.901 11.2656C100.964 11.3099 101.049 11.3503 101.155 11.3867C101.265 11.4232 101.399 11.4583 101.558 11.4922C101.873 11.5547 102.148 11.638 102.382 11.7422C102.619 11.8438 102.804 11.9792 102.937 12.1484C103.069 12.3177 103.136 12.5339 103.136 12.7969C103.136 12.9844 103.095 13.1562 103.015 13.3125C102.934 13.4661 102.817 13.6003 102.663 13.7148C102.51 13.8294 102.326 13.9193 102.112 13.9844C101.899 14.0469 101.658 14.0781 101.39 14.0781C101.002 14.0781 100.674 14.0091 100.405 13.8711C100.137 13.7305 99.934 13.5534 99.796 13.3398C99.658 13.1237 99.589 12.8997 99.589 12.668H100.577C100.585 12.832 100.629 12.9635 100.71 13.0625C100.791 13.1615 100.892 13.2331 101.015 13.2773C101.14 13.319 101.271 13.3398 101.409 13.3398C101.566 13.3398 101.697 13.319 101.804 13.2773C101.911 13.2331 101.991 13.1745 102.046 13.1016C102.101 13.026 102.128 12.9401 102.128 12.8438Z" fill="#0B0B0B"/>
</g>
<defs>
<clipPath id="clip0_662_830">
<rect width="134.195" height="40" rx="5" fill="white"/>
</clipPath>
</defs>
</svg>
