<svg width="269" height="294" viewBox="0 0 269 294" fill="none" xmlns="http://www.w3.org/2000/svg">
<path d="M83.4733 167.686L86.3025 162.963C92.786 152.139 98.806 144.023 104.362 138.616C109.919 133.209 115.529 129.572 121.193 127.706C126.896 125.774 133.118 124.687 139.859 124.447C145.707 124.206 151.038 123.789 155.85 123.195C160.728 122.641 164.983 121.491 168.614 119.744C172.311 118.036 175.26 115.346 177.461 111.672C179.425 108.392 180.367 105.034 180.286 101.598C180.205 98.1625 179.232 94.9502 177.367 91.9616C175.503 88.9729 172.931 86.4962 169.651 84.5315C166.108 82.4096 162.337 81.2649 158.337 81.0973C154.403 80.9691 150.653 81.798 147.087 83.5841C143.587 85.4096 140.698 88.2247 138.418 92.0294L88.0382 61.8514C96.8141 47.4981 107.108 37.7533 118.92 32.6171C130.772 27.4152 143.268 25.8979 156.41 28.0652C169.591 30.1669 182.545 35.0294 195.271 42.6525C209.31 51.0614 220.601 60.633 229.147 71.3672C237.731 82.0359 242.729 93.4087 244.141 105.486C245.593 117.497 242.625 129.669 235.237 142.002C230.483 149.94 224.92 156.101 218.55 160.485C212.285 164.844 205.35 167.865 197.745 169.549C190.245 171.207 182.16 171.98 173.492 171.869C167.118 171.795 161.44 172.271 156.457 173.298C151.514 174.259 147.103 176.117 143.223 178.874C139.382 181.565 135.89 185.535 132.747 190.783L129.918 195.506L83.4733 167.686ZM67.874 248.192C60.2645 243.634 55.3287 237.067 53.0668 228.492C50.9098 219.891 52.1628 211.772 56.8259 204.136C61.2398 196.619 67.7278 191.814 76.2898 189.723C84.9174 187.671 93.0359 188.924 100.645 193.482C107.861 197.804 112.633 204.272 114.961 212.887C117.354 221.54 116.343 229.626 111.929 237.144C108.799 242.221 104.664 246.073 99.5253 248.7C94.4914 251.3 89.1615 252.609 83.5355 252.626C77.9489 252.578 72.7284 251.099 67.874 248.192Z" fill="#3993DD" fill-opacity="0.28"/>
</svg>
