<svg width="62" height="34" viewBox="0 0 62 34" fill="none" xmlns="http://www.w3.org/2000/svg">
<path d="M1.19287 18.359V4.51172H10.44V6.92554H4.09433V10.2251H9.96426V12.6389H4.09433V15.9452H10.4668V18.359H1.19287ZM14.6771 6.92554V4.51172H25.948V6.92554H21.7466V18.359H18.8786V6.92554H14.6771Z" fill="#0B0B0B"/>
<path d="M32.1929 29.2418V15.3945H35.0943V21.1079H40.9843V15.3945H43.8791V29.2418H40.9843V23.5217H35.0943V29.2418H32.1929ZM51.0898 29.2418H47.9806L52.718 15.3945H56.4571L61.1879 29.2418H58.0787L54.6412 18.5588H54.534L51.0898 29.2418ZM50.8954 23.7989H58.2395V26.0842H50.8954V23.7989Z" fill="#0B0B0B"/>
<path d="M31.6738 6.46094H61.326" stroke="#0B0B0B" stroke-width="5"/>
<path d="M0.673828 28.2188H26.9564" stroke="#0B0B0B" stroke-width="5"/>
</svg>
