<svg width="199" height="201" viewBox="0 0 199 201" fill="none" xmlns="http://www.w3.org/2000/svg">
<path fill-rule="evenodd" clip-rule="evenodd" d="M47.1349 145.638C34.9333 152.714 34.9316 152.711 34.9301 152.709L34.9249 152.7L34.9125 152.678L34.8792 152.619L34.7797 152.444C34.739 152.372 34.6913 152.288 34.6362 152.191C34.5828 152.095 34.5222 151.989 34.4553 151.87C34.1848 151.39 33.8086 150.72 33.3419 149.881C32.4108 148.207 31.1123 145.85 29.5772 142.999C26.538 137.356 22.4287 129.515 18.3634 121.078C14.434 112.922 9.90842 102.901 6.51749 93.2171C4.84677 88.4457 2.93812 82.3219 1.69999 75.7043C0.813119 70.9641 -1.51341 57.5759 2.91982 42.422C11.8743 11.8133 43.7628 -5.79474 74.1448 3.09341C90.8916 7.99262 103.686 19.9198 110.296 34.7647C123.865 25.8233 141.07 22.672 157.817 27.5712C188.199 36.4594 205.569 68.4779 196.615 99.0866C192.432 113.385 184.16 123.115 180.481 127.202C175.845 132.352 170.898 136.661 166.849 139.929C158.672 146.528 149.418 152.645 141.747 157.423C133.805 162.37 126.172 166.737 120.621 169.821C117.815 171.38 115.469 172.651 113.791 173.55C112.95 174.001 112.273 174.36 111.784 174.618C111.54 174.747 111.343 174.85 111.196 174.927L111.013 175.023L110.95 175.056L110.926 175.068L110.916 175.074C110.913 175.075 110.911 175.077 104.587 162.716L106.89 161.63L86.6351 117.89C106.89 161.63 106.893 161.628 106.897 161.626L106.905 161.622L106.926 161.613L106.978 161.588L107.132 161.515C107.255 161.456 107.421 161.377 107.625 161.28C108.034 161.084 108.599 160.812 109.302 160.47C110.704 159.788 112.663 158.823 115.005 157.64C119.637 155.299 126.014 151.976 132.65 148.195C139.04 144.553 146.826 139.835 153.734 134.674C157.144 132.125 161.418 128.676 165.459 124.46C168.556 121.23 176.204 112.866 179.929 100.133C187.428 74.5 172.881 47.6864 147.438 40.2432C133.18 36.072 118.525 38.8691 107.077 46.6458C101.624 33.9248 90.7879 23.6704 76.5294 19.4991C51.0866 12.056 24.3819 26.8016 16.8831 52.4345C12.9297 65.9482 15.4548 77.7827 16.2843 81.5393C17.5061 87.0715 19.2951 92.1271 20.8058 95.9715C23.8825 103.802 27.9139 111.867 31.3696 118.376C34.9542 125.126 38.5619 131.399 41.2239 135.909C42.5694 138.188 43.7065 140.073 44.5215 141.412C44.9301 142.083 45.2597 142.62 45.4961 143.004C45.6147 143.196 45.7101 143.351 45.7809 143.465L45.8681 143.605L45.8973 143.652L45.9084 143.67L45.9128 143.678C45.9154 143.681 45.9168 143.684 86.6351 117.89L45.9168 143.684L47.1349 145.638ZM104.586 162.717L110.907 175.078L62.1584 200.466L34.9348 152.717L47.1356 145.64L68.4181 179.79L104.586 162.717Z" fill="#EC4554" fill-opacity="0.55"/>
</svg>
